<!-- This Source Code Form is subject to the terms of the Mozilla Public
   - License, v. 2.0. If a copy of the MPL was not distributed with this
   - file, You can obtain one at http://mozilla.org/MPL/2.0/. -->
<svg xmlns="http://www.w3.org/2000/svg"
     width="32" height="32" viewBox="0 0 32 32">
  <view id="blue" viewBox="0 32 32 32"/>
  <use href="#icon" fill="#37adff" x="0" y="32"/>
  <view id="turquoise" viewBox="0 64 32 32"/>
  <use href="#icon" fill="#00c79a" x="0" y="64"/>
  <view id="green" viewBox="0 96 32 32"/>
  <use href="#icon" fill="#51cd00" x="0" y="96"/>
  <view id="yellow" viewBox="0 128 32 32"/>
  <use href="#icon" fill="#ffcb00" x="0" y="128"/>
  <view id="orange" viewBox="0 160 32 32"/>
  <use href="#icon" fill="#ff9f00" x="0" y="160"/>
  <view id="red" viewBox="0 192 32 32"/>
  <use href="#icon" fill="#ff613d" x="0" y="192"/>
  <view id="pink" viewBox="0 224 32 32"/>
  <use href="#icon" fill="#ff4bda" x="0" y="224"/>
  <view id="purple" viewBox="0 256 32 32"/>
  <use href="#icon" fill="#af51f5" x="0" y="256"/>
  <path id="icon" fill-rule="evenodd"
        d="M22,9.99887085 L21.635468,10 L29.0034652,10 C29.5538362,10 30,10.4449463 30,10.9933977 L30,27.0066023 C30,27.5552407 29.5601869,28 29.0034652,28 L2.99653482,28 C2.44616384,28 2,27.5550537 2,27.0066023 L2,10.9933977 C2,10.4447593 2.43981314,10 2.99653482,10 L8,10 L8,7.99922997 C8,5.79051625 10.0426627,4 12.5635454,4 L19.4364546,4 C21.9568311,4 24,5.79246765 24,7.99922997 L24,9.99267578 L22,9.99887085 L22,10 L10,10 L10,7.99922997 C10,6.89421235 11.0713286,6 12.3917227,6 L19.6082773,6 C20.9273761,6 22,6.89552665 22,7.99922997 L22,9.99887085 Z"/>
</svg>

