<!-- This Source Code Form is subject to the terms of the Mozilla Public
   - License, v. 2.0. If a copy of the MPL was not distributed with this
   - file, You can obtain one at http://mozilla.org/MPL/2.0/. -->
<svg xmlns="http://www.w3.org/2000/svg"
     width="32" height="32" viewBox="0 0 32 32">
  <view id="blue" viewBox="0 32 32 32"/>
  <use href="#icon" fill="#37adff" x="0" y="32"/>
  <view id="turquoise" viewBox="0 64 32 32"/>
  <use href="#icon" fill="#00c79a" x="0" y="64"/>
  <view id="green" viewBox="0 96 32 32"/>
  <use href="#icon" fill="#51cd00" x="0" y="96"/>
  <view id="yellow" viewBox="0 128 32 32"/>
  <use href="#icon" fill="#ffcb00" x="0" y="128"/>
  <view id="orange" viewBox="0 160 32 32"/>
  <use href="#icon" fill="#ff9f00" x="0" y="160"/>
  <view id="red" viewBox="0 192 32 32"/>
  <use href="#icon" fill="#ff613d" x="0" y="192"/>
  <view id="pink" viewBox="0 224 32 32"/>
  <use href="#icon" fill="#ff4bda" x="0" y="224"/>
  <view id="purple" viewBox="0 256 32 32"/>
  <use href="#icon" fill="#af51f5" x="0" y="256"/>
  <path id="icon" fill-rule="evenodd"
        d="M26.9,21.4H9.4c-0.7,0-1.3,0.5-1.3,1.3s0.5,1.3,1.3,1.3h17.5c0.7,0,1.3-0.5,1.3-1.3
  C28.5,21.9,27.8,21.4,26.9,21.4z M13.3,30.1c1.3,0,2.7-1.2,2.7-2.7c0-1.3-1.2-2.7-2.7-2.7s-2.7,1.2-2.7,2.7
  C10.6,29,12,30.1,13.3,30.1z M23.9,30.1c1.3,0,2.7-1.2,2.7-2.7c0-1.3-1.2-2.7-2.7-2.7c-1.5,0-2.7,1.2-2.7,2.7
  C21.4,29,22.6,30.1,23.9,30.1z M31.5,7.4L31.5,7.4H7.6V7.2L5.7,2.5C5.4,2.2,5.1,1.9,4.6,1.9H0.7C0,1.9,0,2.5,0,2.9
  C0,3.5-0.2,4,0.7,4.2h2.7l0.7,1.5l4,13.3c0,0.2,0.2,0.5,0.8,0.5h18.5c0.3,0,0.7-0.2,0.7-0.5L32,8.3C32,8.1,31.8,7.4,31.5,7.4z"/>
</svg>

