<!-- This Source Code Form is subject to the terms of the Mozilla Public
   - License, v. 2.0. If a copy of the MPL was not distributed with this
   - file, You can obtain one at http://mozilla.org/MPL/2.0/. -->
<svg xmlns="http://www.w3.org/2000/svg"
     width="32" height="32" viewBox="0 0 32 32">
  <view id="blue" viewBox="0 32 32 32"/>
  <use href="#icon" fill="#37adff" x="0" y="32"/>
  <view id="turquoise" viewBox="0 64 32 32"/>
  <use href="#icon" fill="#00c79a" x="0" y="64"/>
  <view id="green" viewBox="0 96 32 32"/>
  <use href="#icon" fill="#51cd00" x="0" y="96"/>
  <view id="yellow" viewBox="0 128 32 32"/>
  <use href="#icon" fill="#ffcb00" x="0" y="128"/>
  <view id="orange" viewBox="0 160 32 32"/>
  <use href="#icon" fill="#ff9f00" x="0" y="160"/>
  <view id="red" viewBox="0 192 32 32"/>
  <use href="#icon" fill="#ff613d" x="0" y="192"/>
  <view id="pink" viewBox="0 224 32 32"/>
  <use href="#icon" fill="#ff4bda" x="0" y="224"/>
  <view id="purple" viewBox="0 256 32 32"/>
  <use href="#icon" fill="#af51f5" x="0" y="256"/>
  <path id="icon" d="M17.3857868,14.0527919 C14.2304569,13.0862944 13.4913706,12.4609137 13.4913706,11.0964467 C13.4913706,9.61827411 14.7137056,8.85076142 16.4192893,8.85076142 C17.9827411,8.85076142 19.3187817,9.33401015 20.5979695,10.4994924 L22.4456853,8.42436548 C21.1664975,7.20203046 19.3187819,6.26535905 17,6.00952148 L17,2 L15,2 L15,6.00952148 C12.3827412,6.43591742 9.76751269,8.53807107 9.76751269,11.3238579 C9.76751269,14.1664975 11.4730964,15.786802 15.4812183,17.0091371 C18.4375635,17.9187817 19.2335025,18.6294416 19.2335025,20.2213198 C19.2335025,22.0690355 17.7553299,23.035533 15.7370558,23.035533 C13.7756345,23.035533 12.2406091,22.3248731 10.9329949,21.1025381 L9,23.2345178 C10.4213198,24.6274112 12.8659899,25.8324934 15,26.0030518 L15,30 L17,30 L17,26.0030518 C20.7116753,25.4060974 22.9857868,22.893401 22.9857868,20.022335 C22.9857868,16.4690355 20.7116751,15.1045685 17.3857868,14.0527919 Z"/>
</svg>

