<!-- This Source Code Form is subject to the terms of the Mozilla Public
   - License, v. 2.0. If a copy of the MPL was not distributed with this
   - file, You can obtain one at http://mozilla.org/MPL/2.0/. -->
<svg xmlns="http://www.w3.org/2000/svg"
     width="32" height="32" viewBox="0 0 32 32">
  <view id="blue" viewBox="0 32 32 32"/>
  <use href="#icon" fill="#37adff" x="0" y="32"/>
  <view id="turquoise" viewBox="0 64 32 32"/>
  <use href="#icon" fill="#00c79a" x="0" y="64"/>
  <view id="green" viewBox="0 96 32 32"/>
  <use href="#icon" fill="#51cd00" x="0" y="96"/>
  <view id="yellow" viewBox="0 128 32 32"/>
  <use href="#icon" fill="#ffcb00" x="0" y="128"/>
  <view id="orange" viewBox="0 160 32 32"/>
  <use href="#icon" fill="#ff9f00" x="0" y="160"/>
  <view id="red" viewBox="0 192 32 32"/>
  <use href="#icon" fill="#ff613d" x="0" y="192"/>
  <view id="pink" viewBox="0 224 32 32"/>
  <use href="#icon" fill="#ff4bda" x="0" y="224"/>
  <view id="purple" viewBox="0 256 32 32"/>
  <use href="#icon" fill="#af51f5" x="0" y="256"/>
  <path id="icon" d="M16.2,0c-8.9,0-16,7.3-16,16c0,8.9,7.1,16,15.8,16s15.8-7.1,15.8-16C32,7.3,24.9,0,16.2,0z M17.1,25.1v1.6
  c0,0.4-0.4,0.5-0.7,0.5c-0.4,0-0.7-0.2-0.7-0.5v-1.6c-3.2-0.2-5-1.8-5.5-4.3c0-0.2,0-0.2,0-0.4c0-0.5,0.4-0.9,0.9-0.9
  c0.2,0,0.2,0,0.4,0c0.5,0,0.9,0.2,1.1,0.7c0.4,1.8,1.2,2.7,3.4,2.8v-6.8c-3.6-0.4-5.3-1.8-5.3-4.6c0-3,2.5-4.6,5.2-4.8V5.7
  c0-0.4,0.4-0.5,0.7-0.5c0.4,0,0.7,0.2,0.7,0.5v1.1c2.7,0.4,4.4,1.8,5,3.9c0,0.2,0,0.2,0,0.4c0,0.5-0.4,0.7-0.7,0.9
  c-0.2,0-0.2,0-0.4,0c-0.4,0-0.7-0.2-0.9-0.7c-0.4-1.4-1.2-2.3-3-2.5v6c3.2,0.7,5.5,1.8,5.5,5.2C22.8,23.5,20.1,25.1,17.1,25.1z
   M12.4,11.6c0,1.6,0.7,2.5,3.2,3V8.7C13.7,8.9,12.4,10,12.4,11.6z M17.1,16.9v6.4c2.3-0.2,3.6-1.2,3.6-3.2
  C20.6,17.8,19.2,17.2,17.1,16.9z"/>
</svg>

