<!-- This Source Code Form is subject to the terms of the Mozilla Public
   - License, v. 2.0. If a copy of the MPL was not distributed with this
   - file, You can obtain one at http://mozilla.org/MPL/2.0/. -->
<svg xmlns="http://www.w3.org/2000/svg"
     width="32" height="32" viewBox="0 0 32 32">
  <view id="blue" viewBox="0 32 32 32"/>
  <use href="#icon" fill="#37adff" x="0" y="32"/>
  <view id="turquoise" viewBox="0 64 32 32"/>
  <use href="#icon" fill="#00c79a" x="0" y="64"/>
  <view id="green" viewBox="0 96 32 32"/>
  <use href="#icon" fill="#51cd00" x="0" y="96"/>
  <view id="yellow" viewBox="0 128 32 32"/>
  <use href="#icon" fill="#ffcb00" x="0" y="128"/>
  <view id="orange" viewBox="0 160 32 32"/>
  <use href="#icon" fill="#ff9f00" x="0" y="160"/>
  <view id="red" viewBox="0 192 32 32"/>
  <use href="#icon" fill="#ff613d" x="0" y="192"/>
  <view id="pink" viewBox="0 224 32 32"/>
  <use href="#icon" fill="#ff4bda" x="0" y="224"/>
  <view id="purple" viewBox="0 256 32 32"/>
  <use href="#icon" fill="#af51f5" x="0" y="256"/>
  <path id="icon" d="M14.1,0.9v5.3h-1.4V0.9c0-1.1-1.4-1.1-1.4,0v5.3h-1.2V0.9c0-1.1-1.4-1.1-1.4,0v5.3H7.2V0.9c0-1.2-1.6-1.1-1.6,0
  v10.4c0,1.8,1.2,3,2.8,3v15.2c0,1.6,1.1,2.5,2.1,2.5s2.1-0.9,2.1-2.5V14.3c1.6,0,2.8-1.4,2.8-2.8V0.9C15.6-0.4,14.1-0.2,14.1,0.9z
   M19.8,3.7v25.8c0,3.2,4.2,3.2,4.2,0V17.1h2.3V3.7C26.5-1.2,19.8-1.2,19.8,3.7z"/>
</svg>

