<!-- This Source Code Form is subject to the terms of the Mozilla Public
   - License, v. 2.0. If a copy of the MPL was not distributed with this
   - file, You can obtain one at http://mozilla.org/MPL/2.0/. -->
<svg xmlns="http://www.w3.org/2000/svg"
     width="32" height="32" viewBox="0 0 32 32">
  <view id="blue" viewBox="0 32 32 32"/>
  <use href="#icon" fill="#37adff" x="0" y="32"/>
  <view id="turquoise" viewBox="0 64 32 32"/>
  <use href="#icon" fill="#00c79a" x="0" y="64"/>
  <view id="green" viewBox="0 96 32 32"/>
  <use href="#icon" fill="#51cd00" x="0" y="96"/>
  <view id="yellow" viewBox="0 128 32 32"/>
  <use href="#icon" fill="#ffcb00" x="0" y="128"/>
  <view id="orange" viewBox="0 160 32 32"/>
  <use href="#icon" fill="#ff9f00" x="0" y="160"/>
  <view id="red" viewBox="0 192 32 32"/>
  <use href="#icon" fill="#ff613d" x="0" y="192"/>
  <view id="pink" viewBox="0 224 32 32"/>
  <use href="#icon" fill="#ff4bda" x="0" y="224"/>
  <view id="purple" viewBox="0 256 32 32"/>
  <use href="#icon" fill="#af51f5" x="0" y="256"/>
  <path id="icon" d="M30.3,8.1h-4.5V8c0.7-0.7,1.3-1.9,1.3-3.2c0-2.6-2.1-4.7-4.9-4.7c-1.5,0-4.5,1.5-6.4,3.4C14,1.6,11,0.1,9.5,0.1
  c-2.6,0-4.9,2.1-4.9,4.7C4.7,6.1,5.2,7.2,6,8H1.7C0.6,8,0,8.7,0,9.6v4.5c0,0.2,0.2,0.4,0.4,0.4h13.8V9.6h3.2v4.9h14.2
  c0.2,0,0.4-0.2,0.4-0.4V9.6C32,8.7,31.4,8.1,30.3,8.1z M9.5,6.5C8.6,6.5,8,5.9,8,4.8s0.6-1.5,1.5-1.5s3.7,1.9,4.7,2.8
  C13.7,6.3,9.5,6.5,9.5,6.5z M22.3,6.5c0,0-4.1-0.2-4.7-0.4c0.9-1.1,3.7-2.8,4.7-2.8S24,3.8,24,4.8S23.2,6.5,22.3,6.5z M1.7,17.7
  h12.7v14.2H1.7V17.7z M17.6,17.7h12.7v14.2H17.6V17.7z"/>
</svg>

