<!-- This Source Code Form is subject to the terms of the Mozilla Public
   - License, v. 2.0. If a copy of the MPL was not distributed with this
   - file, You can obtain one at http://mozilla.org/MPL/2.0/. -->
<svg xmlns="http://www.w3.org/2000/svg"
     width="32" height="32" viewBox="0 0 32 32">
  <view id="blue" viewBox="0 32 32 32"/>
  <use href="#icon" fill="#37adff" x="0" y="32"/>
  <view id="turquoise" viewBox="0 64 32 32"/>
  <use href="#icon" fill="#00c79a" x="0" y="64"/>
  <view id="green" viewBox="0 96 32 32"/>
  <use href="#icon" fill="#51cd00" x="0" y="96"/>
  <view id="yellow" viewBox="0 128 32 32"/>
  <use href="#icon" fill="#ffcb00" x="0" y="128"/>
  <view id="orange" viewBox="0 160 32 32"/>
  <use href="#icon" fill="#ff9f00" x="0" y="160"/>
  <view id="red" viewBox="0 192 32 32"/>
  <use href="#icon" fill="#ff613d" x="0" y="192"/>
  <view id="pink" viewBox="0 224 32 32"/>
  <use href="#icon" fill="#ff4bda" x="0" y="224"/>
  <view id="purple" viewBox="0 256 32 32"/>
  <use href="#icon" fill="#af51f5" x="0" y="256"/>
  <path id="icon" d="M3.6,27l-2.5-1.8L0.8,25c-0.7-0.4-0.7-1.2-0.4-2c0.4-0.5,1.1-0.7,1.6-0.5l3.6,1.2c0-0.4,0.2-0.9,0.4-1.4
  c0.2-0.7,0.5-1.6,1.1-2.3c0.2-0.4,0.5-0.7,0.7-1.2c0.2-0.4,0.5-0.9,0.9-1.2c0.4-0.9,1.1-1.6,1.8-2.5c0.7-0.9,1.4-1.6,2.3-2.5
  c0.4-0.4,0.9-0.7,1.2-1.2c0.4-0.2,0.9-0.7,1.2-1.1c0.2-0.2,0.2-0.2,0.4-0.4L3.1,7.3c-0.2,0-0.2,0-0.4,0l-2,0.9
  C0.2,8.3-0.3,7.6,0.2,7.1l2-2C2.4,5,2.4,5,2.5,5h17.9c0.5-0.5,1.2-1.1,1.8-1.6c0.7-0.7,1.4-1.2,2.1-1.8c0.4-0.4,0.7-0.5,1.1-0.7
  c0.4-0.2,0.7-0.4,1.1-0.5c0.5,0,0.9-0.2,1.2-0.2s0.7,0,1.1,0s0.7,0,1.1,0c0.4,0,0.5,0,0.7,0.2c0.5,0,0.7,0.2,0.7,0.2
  c0.2,0,0.2,0.2,0.4,0.4c0,0,0,0.4,0.2,0.7c0,0.2,0,0.5,0.2,0.7c0,0.4,0,0.7,0,1.1s0,0.7,0,1.1c0,0.4,0,0.9-0.2,1.2
  c-0.2,0.4-0.4,0.7-0.5,1.1c-0.2,0.4-0.5,0.7-0.7,1.1c-0.5,0.7-1.1,1.4-1.8,2.1c-0.4,0.4-0.7,0.7-1.1,1.1v17.8c0,0.2,0,0.4-0.2,0.4
  l-2,2c-0.5,0.5-1.2,0-1.1-0.5l0.7-2c0-0.2,0-0.2,0-0.4L22.8,16c-0.4,0.4-0.7,0.7-0.9,0.9c-0.4,0.4-0.7,0.9-1.2,1.2
  c-0.4,0.4-0.7,0.9-1.2,1.2c-0.7,0.9-1.6,1.6-2.5,2.3c-0.9,0.7-1.6,1.4-2.5,2c-0.4,0.4-0.9,0.5-1.2,0.9c-0.4,0.2-0.7,0.5-1.2,0.7
  c-0.7,0.4-1.6,0.7-2.3,1.1c-0.4,0.2-0.7,0.2-1.2,0.4L9.6,30c0.4,0.7,0,1.4-0.7,1.8c-0.5,0.2-1.2,0-1.6-0.5l-0.2-0.4l-1.8-2.3
  c-0.2,0-0.2,0-0.4,0.2c-0.4,0-0.5,0.2-0.7,0.2s-0.2,0-0.4,0c-0.2,0-0.2,0-0.4,0c-0.2,0-0.4,0-0.5,0c-0.2,0-0.2,0-0.2,0s0,0,0-0.2
  c0-0.2,0-0.2,0-0.5c0-0.2,0-0.2,0-0.4c0-0.2,0-0.2,0-0.4C3.4,27.5,3.4,27.3,3.6,27L3.6,27z M5.7,28.4L5.7,28.4L5.7,28.4L5.7,28.4z"
  />
</svg>

